<?xml version="1.0" standalone="no"?>
<!DOCTYPE svg PUBLIC "-//W3C//DTD SVG 20010904//EN"
 "http://www.w3.org/TR/2001/REC-SVG-20010904/DTD/svg10.dtd">
<svg version="1.0" xmlns="http://www.w3.org/2000/svg"
 width="500.000000pt" height="500.000000pt" viewBox="0 0 500.000000 500.000000"
 preserveAspectRatio="xMidYMid meet">

<g transform="translate(0.000000,500.000000) scale(0.100000,-0.100000)"
fill="#000000" stroke="none">
<path d="M2295 4509 c-311 -30 -649 -153 -918 -333 -841 -562 -1135 -1674
-682 -2575 203 -406 512 -712 920 -912 380 -187 801 -248 1215 -178 423 72
796 263 1095 563 310 311 505 696 572 1129 23 152 23 442 0 594 -117 755 -641
1378 -1361 1617 -273 91 -550 122 -841 95z m110 -333 c50 -21 75 -68 75 -142
0 -47 -5 -67 -21 -88 -62 -79 -175 -72 -218 13 -69 134 35 271 164 217z m423
-11 c7 -3 10 -10 7 -15 -5 -7 -31 -9 -75 -4 -68 6 -69 6 -75 -19 -10 -36 -2
-71 15 -74 8 -1 36 -5 63 -8 31 -4 47 -11 47 -21 0 -11 -11 -13 -57 -8 -32 3
-63 7 -69 9 -8 2 -14 -20 -19 -61 -5 -53 -10 -65 -23 -62 -10 2 -17 10 -16 18
5 80 28 247 35 256 8 10 131 2 167 -11z m-794 -51 c9 -3 16 -13 16 -21 0 -12
-8 -14 -34 -9 -42 8 -100 -13 -115 -42 -29 -54 7 -162 59 -181 36 -12 84 0
117 30 26 25 38 21 28 -10 -3 -11 -26 -30 -51 -42 -99 -47 -185 10 -202 134
-7 55 21 105 73 128 41 19 81 24 109 13z m1057 -14 c38 -11 71 -25 74 -30 12
-20 -22 -20 -79 0 -33 11 -60 20 -62 20 -3 0 -34 -93 -31 -95 1 -1 30 -10 65
-20 36 -11 62 -24 62 -32 0 -17 -7 -17 -78 6 l-60 18 -18 -59 c-9 -32 -22 -62
-27 -65 -23 -14 -22 26 5 110 15 51 33 109 39 130 12 43 17 44 110 17z m315
-131 c41 -22 74 -45 74 -50 0 -15 -18 -11 -80 21 l-60 30 -20 -32 c-11 -18
-20 -39 -20 -45 0 -7 28 -27 61 -44 46 -23 59 -33 50 -42 -8 -8 -25 -4 -66 16
-31 15 -59 27 -63 27 -9 0 -42 -64 -42 -80 0 -5 27 -23 60 -40 56 -28 77 -50
47 -50 -14 0 -144 67 -151 78 -5 9 122 252 131 252 3 0 39 -18 79 -41z m-1984
-201 l3 -81 70 -20 c75 -20 91 -29 81 -45 -4 -7 -30 -4 -74 9 -37 10 -71 19
-75 19 -5 0 -8 -30 -7 -67 3 -90 2 -95 -12 -91 -9 3 -15 34 -18 89 l-5 83 -75
22 c-41 13 -77 23 -79 23 -2 1 2 7 8 15 10 12 21 11 74 -5 34 -10 65 -19 70
-19 4 0 7 34 7 75 0 59 3 75 15 75 11 0 15 -18 17 -82z m318 67 c0 -15 -68
-55 -95 -55 -29 0 -15 20 33 44 56 30 62 31 62 11z m1966 -61 c55 -43 79 -74
56 -74 -6 0 -33 18 -61 40 -28 22 -54 40 -59 40 -10 0 -52 -55 -52 -69 0 -6
23 -27 50 -48 28 -20 50 -41 50 -45 0 -21 -24 -14 -69 22 -28 22 -54 40 -58
40 -4 0 -20 -18 -35 -38 l-27 -38 55 -43 c53 -41 60 -51 48 -64 -6 -6 -112 72
-135 99 -7 9 11 39 72 118 45 58 88 106 94 106 6 0 38 -21 71 -46z m-1543
-344 c111 -35 169 -74 207 -140 84 -143 129 -438 101 -655 -25 -189 -175 -422
-319 -492 -66 -32 -131 -36 -282 -15 -108 15 -127 24 -175 90 -197 272 -248
699 -114 964 39 77 105 163 156 202 l38 29 -26 -29 c-15 -16 -34 -42 -44 -57
-10 -15 -20 -25 -23 -22 -6 5 -38 -39 -71 -99 -24 -42 -26 -50 -8 -40 6 4 2
-4 -10 -17 -29 -32 -60 -157 -64 -255 -2 -60 0 -78 10 -76 8 1 10 -2 4 -10
-10 -17 -12 -108 -1 -108 4 0 8 -14 8 -32 0 -59 23 -162 50 -229 25 -60 46
-92 91 -140 11 -11 14 -20 7 -27 -14 -14 9 -46 50 -68 26 -14 36 -16 40 -6 2
6 8 12 13 12 4 0 6 -7 3 -15 -4 -8 -15 -15 -27 -15 -29 0 -17 -8 22 -15 19 -3
38 -8 42 -10 4 -3 9 2 13 10 6 18 32 20 42 3 4 -7 3 -8 -4 -4 -7 4 -12 2 -12
-4 0 -7 7 -10 15 -6 8 3 30 -1 49 -9 48 -20 93 -19 105 3 6 9 11 13 11 8 0 -5
7 -3 15 4 8 7 15 9 15 4 0 -5 5 -2 10 6 8 13 10 12 10 -3 0 -15 3 -16 23 -5
12 7 25 11 30 10 4 -1 42 33 85 76 79 80 157 207 146 237 -4 9 0 15 10 15 9 0
16 5 16 10 0 6 -5 10 -10 10 -6 0 -3 14 6 32 18 34 19 38 35 147 8 57 8 96 -1
160 -7 47 -14 112 -17 143 -3 34 -9 55 -15 52 -6 -4 -7 2 -3 16 4 12 3 25 -2
29 -5 3 -14 33 -21 65 -13 64 -46 122 -74 130 -13 3 -16 10 -11 22 4 12 3 15
-5 10 -7 -4 -12 -2 -12 6 -1 21 -38 42 -132 76 -98 35 -90 34 -225 36 -56 0
-100 3 -98 5 13 12 81 20 150 16 54 -2 114 -14 178 -35z m-139 -16 c3 -9 6
-27 6 -40 0 -13 5 -24 11 -24 6 0 8 9 3 23 -3 12 -3 18 2 14 5 -5 10 -32 10
-60 1 -29 5 -112 9 -185 6 -122 5 -139 -16 -203 -22 -67 -22 -70 -6 -147 26
-119 23 -262 -8 -353 -13 -41 -24 -66 -25 -56 0 28 -29 78 -71 124 l-39 43 0
105 c0 75 -3 104 -11 99 -8 -4 -9 1 -4 17 7 22 25 87 43 164 5 17 4 57 0 90
-5 36 -4 87 2 127 13 87 14 84 -12 83 -36 0 -36 20 0 23 21 2 38 12 49 29 16
25 16 26 -25 60 -23 19 -42 41 -42 48 0 9 10 4 27 -13 l27 -27 7 27 c4 15 10
31 14 37 10 16 42 13 49 -5z m-477 -556 c-2 -18 -4 -6 -4 27 0 33 2 48 4 33 2
-15 2 -42 0 -60z m318 -125 c-6 -25 -8 -26 -17 -10 -7 13 -6 22 3 33 16 20 23
10 14 -23z m1473 -68 c131 -40 180 -154 153 -357 -33 -244 -98 -358 -309 -536
-137 -115 -217 -164 -335 -204 -88 -31 -99 -32 -247 -33 -177 0 -189 4 -265
83 -67 69 -109 159 -111 241 l-3 66 8 -55 c11 -73 39 -140 51 -121 6 11 10 4
16 -24 5 -29 22 -53 65 -95 65 -63 73 -66 207 -69 73 -2 82 0 83 16 1 17 2 17
6 1 5 -19 43 -25 43 -8 0 10 17 19 68 34 16 6 22 3 22 -8 0 -9 5 -16 11 -16 5
0 8 4 5 9 -3 4 6 6 21 3 16 -3 24 -1 20 5 -4 6 -1 10 6 10 6 -1 31 4 55 11
l44 13 -26 24 c-31 29 -31 29 -8 46 15 13 16 12 4 -2 -11 -14 -9 -20 15 -37
31 -22 29 -23 131 50 34 26 52 46 53 61 0 12 3 17 5 10 8 -17 34 -4 34 17 0
13 5 17 20 13 16 -4 20 0 20 20 0 14 7 27 15 31 8 3 15 0 15 -6 0 -6 18 7 40
28 22 22 40 44 39 49 0 6 -3 4 -6 -2 -8 -21 -22 -15 -16 7 3 11 9 17 14 14 5
-3 9 0 9 6 0 7 7 9 16 6 8 -3 12 -2 9 3 -3 6 5 20 18 33 77 77 119 216 119
395 1 113 -1 125 -25 166 -28 48 -55 66 -69 45 -5 -9 -8 -6 -8 10 0 12 -3 21
-7 20 -5 -1 -32 6 -62 15 -85 26 -137 22 -224 -18 -42 -19 -111 -43 -154 -51
-142 -30 -211 -66 -317 -168 -32 -30 -59 -54 -61 -53 -5 3 -155 -126 -212
-182 -29 -29 -53 -59 -53 -67 0 -7 -4 -14 -8 -14 -5 0 -14 -10 -20 -22 -6 -13
-11 -18 -11 -12 -2 29 88 138 185 224 290 257 304 266 477 310 62 16 144 42
182 60 62 27 78 30 135 26 36 -3 89 -12 118 -21z m-2416 -112 c23 -20 24 -80
1 -105 -22 -24 -77 -24 -103 2 -44 44 -11 120 52 120 17 0 40 -7 50 -17z
m3258 -3 c42 -42 12 -120 -48 -120 -46 0 -72 25 -72 70 0 29 6 43 22 54 31 22
74 20 98 -4z m-917 -70 c-1 -21 -12 -43 -32 -64 -35 -36 -40 -52 -12 -36 25
13 78 13 86 0 4 -6 -6 -10 -22 -10 -42 -1 -110 -35 -169 -85 -29 -25 -59 -45
-68 -45 -8 0 -18 -4 -21 -10 -3 -5 -18 -10 -33 -10 -43 0 -141 -53 -217 -116
-38 -33 -88 -71 -110 -85 -228 -147 -290 -195 -306 -237 -5 -14 -12 -22 -15
-19 -3 3 1 20 10 38 16 32 13 56 -3 30 -7 -11 -13 -9 -30 8 -32 32 -27 57 15
71 28 10 46 27 80 81 58 89 133 144 222 164 51 11 38 -10 -21 -34 -60 -24
-127 -75 -127 -96 0 -7 -6 -16 -12 -18 -10 -4 -10 -6 0 -6 7 -1 17 9 22 22 5
14 9 16 9 6 1 -19 31 -21 31 -2 0 8 -4 11 -10 8 -24 -15 -7 14 18 31 18 12 23
13 15 3 -16 -20 -13 -61 5 -54 7 3 18 5 23 5 6 0 8 4 4 10 -3 5 -12 7 -20 3
-8 -3 -15 0 -15 6 0 6 7 11 15 11 8 0 15 4 15 8 0 5 7 9 15 9 8 0 15 -5 15
-10 0 -5 7 -7 15 -3 25 9 17 1 -31 -33 -66 -48 -46 -50 23 -2 52 36 121 97
148 133 24 30 25 41 1 15 -23 -25 -32 -23 -27 6 0 4 -4 7 -11 7 -7 0 8 13 33
29 24 15 75 59 112 97 85 87 125 119 157 128 21 6 19 2 -15 -28 -64 -56 -24
-42 81 30 138 94 160 101 157 44z m184 -17 c-3 -10 -5 -4 -5 12 0 17 2 24 5
18 2 -7 2 -21 0 -30z m0 -125 c-3 -8 -6 -5 -6 6 -1 11 2 17 5 13 3 -3 4 -12 1
-19z m-1433 0 c-3 -5 -10 -5 -16 -2 -8 5 -9 -4 -5 -27 4 -19 14 -38 23 -44 41
-26 64 -48 64 -62 0 -14 -4 -13 -22 5 -23 20 -71 44 -95 46 -14 1 -14 10 -2
41 4 11 10 28 13 37 3 9 14 16 25 15 11 0 17 -5 15 -9z m1196 -32 c0 -11 -19
-15 -25 -6 -3 5 1 10 9 10 9 0 16 -2 16 -4z m-1484 -54 c1 -7 0 -8 -3 -2 -2 5
-9 8 -14 4 -5 -3 -9 0 -9 6 0 15 23 7 26 -8z m100 -79 c-10 -10 -19 5 -10 18
6 11 8 11 12 0 2 -7 1 -15 -2 -18z m27 12 c-3 -9 -8 -14 -10 -11 -3 3 -2 9 2
15 9 16 15 13 8 -4z m297 5 c-8 -5 -19 -10 -25 -10 -5 0 -3 5 5 10 8 5 20 10
25 10 6 0 3 -5 -5 -10z m590 -35 c0 -3 -8 -13 -17 -23 -10 -9 -25 -29 -35 -42
-20 -30 -38 -17 -27 20 4 14 7 19 8 12 1 -7 6 -10 11 -7 6 4 8 11 5 16 -6 8 8
13 28 10 4 0 7 4 7 9 0 6 5 10 10 10 6 0 10 -2 10 -5z m-124 -60 c-26 -19 -42
-19 -26 0 7 8 20 15 29 15 13 -1 13 -3 -3 -15z m731 -47 c-3 -7 -5 -2 -5 12 0
14 2 19 5 13 2 -7 2 -19 0 -25z m-1071 -10 c3 -4 -2 -5 -13 -4 -10 2 -21 -4
-25 -13 -5 -12 -7 -11 -7 6 -1 17 4 22 19 20 11 -2 22 -6 26 -9z m894 -39 c0
-5 -4 -9 -8 -9 -5 0 -9 7 -9 15 0 8 4 12 9 9 4 -3 8 -9 8 -15z m140 17 c0 -3
-4 -8 -10 -11 -5 -3 -10 -1 -10 4 0 6 5 11 10 11 6 0 10 -2 10 -4z m-80 -9 c0
-2 -10 -12 -22 -23 l-23 -19 19 23 c18 21 26 27 26 19z m33 -68 c-6 -6 -7 3
-4 23 4 28 6 29 9 9 2 -13 0 -27 -5 -32z m-66 -26 c-3 -10 -5 -4 -5 12 0 17 2
24 5 18 2 -7 2 -21 0 -30z m66 -21 c-10 -10 -20 -14 -22 -9 -2 5 3 13 10 18
24 15 30 10 12 -9z m-306 -139 c-3 -10 -5 -2 -5 17 0 19 2 27 5 18 2 -10 2
-26 0 -35z m-593 -93 c5 -18 1 -15 -12 10 -10 19 -24 34 -30 33 -7 -2 -12 5
-12 14 0 15 4 13 24 -7 13 -14 27 -36 30 -50z m446 22 c0 -11 -7 -18 -20 -18
-11 0 -20 4 -20 8 0 4 7 8 15 8 8 0 15 5 15 10 0 6 2 10 5 10 3 0 5 -8 5 -18z
m-394 -49 c-7 -7 -26 7 -26 19 0 6 6 6 15 -2 9 -7 13 -15 11 -17z m324 22 c0
-2 -9 -9 -20 -15 -12 -6 -20 -7 -20 -1 0 5 8 12 18 14 9 3 18 5 20 6 1 0 2 -1
2 -4z m-136 -30 c3 -8 1 -15 -4 -15 -6 0 -10 7 -10 15 0 8 2 15 4 15 2 0 6 -7
10 -15z m86 5 c0 -5 -2 -10 -4 -10 -3 0 -8 5 -11 10 -3 6 -1 10 4 10 6 0 11
-4 11 -10z m-200 -42 c0 -6 -6 -5 -15 2 -8 7 -15 14 -15 16 0 2 7 1 15 -2 8
-4 15 -11 15 -16z m25 2 c3 -5 1 -10 -4 -10 -6 0 -11 5 -11 10 0 6 2 10 4 10
3 0 8 -4 11 -10z m-337 -378 c-37 -4 -35 -25 3 -39 21 -8 30 -17 27 -30 -4
-20 -54 -31 -70 -15 -7 7 1 10 22 9 42 -2 50 19 11 28 -24 5 -31 12 -31 30 0
24 23 36 50 26 9 -4 5 -7 -12 -9z m502 -35 c0 -38 -15 -57 -44 -56 -18 1 -17
2 4 8 14 4 26 14 28 23 2 12 -2 15 -18 11 -13 -4 -26 0 -31 8 -12 19 -11 25 7
43 24 24 54 4 54 -37z m120 0 c0 -18 -5 -38 -12 -45 -14 -14 -44 -16 -52 -4
-2 4 7 8 22 7 16 0 28 6 30 15 2 11 -5 16 -25 15 -33 0 -44 32 -18 51 27 20
55 0 55 -39z m-742 36 c-16 -2 -28 -11 -28 -19 0 -8 11 -15 28 -15 l27 -2 -27
-4 c-42 -6 -38 -40 5 -46 31 -4 31 -4 -5 -5 l-38 -2 0 50 0 50 33 -1 c30 -2
30 -2 5 -6z m260 0 c-14 -3 -18 -15 -18 -49 0 -24 -4 -44 -10 -44 -5 0 -10 20
-10 44 0 34 -4 46 -17 49 -10 3 2 5 27 5 25 0 37 -2 28 -5z m222 -37 c0 -34 4
-46 18 -49 9 -3 1 -5 -18 -5 -19 0 -29 2 -22 5 7 2 12 22 12 44 0 28 -4 38
-12 33 -7 -4 -8 -3 -4 4 15 24 26 10 26 -32z m370 32 c-1 -14 -50 -98 -50 -85
0 4 9 25 20 47 l20 39 -28 4 c-25 4 -25 4 6 6 20 0 32 -4 32 -11z"/>
<path d="M2314 4150 c-36 -14 -54 -50 -54 -105 0 -67 27 -112 73 -120 75 -14
127 49 112 136 -12 71 -74 114 -131 89z"/>
<path d="M1976 3394 c-10 -27 -7 -44 9 -44 9 0 15 -9 15 -25 0 -19 5 -25 23
-25 19 1 20 2 6 13 -9 7 -19 22 -23 35 -4 12 -12 22 -17 22 -6 0 -6 8 1 20 6
11 7 20 1 20 -5 0 -12 -7 -15 -16z"/>
<path d="M2020 3274 c0 -8 5 -12 10 -9 6 4 8 11 5 16 -9 14 -15 11 -15 -7z"/>
<path d="M1961 3229 c-20 -59 -10 -89 19 -54 11 13 10 14 -4 9 -20 -8 -21 10
-1 30 16 16 20 46 6 46 -5 0 -14 -14 -20 -31z"/>
<path d="M2001 3224 c0 -11 3 -14 6 -6 3 7 2 16 -1 19 -3 4 -6 -2 -5 -13z"/>
<path d="M2026 3201 c-4 -7 -5 -15 -2 -18 9 -9 19 4 14 18 -4 11 -6 11 -12 0z"/>
<path d="M1985 3149 c-5 -15 -10 -18 -15 -10 -16 27 -27 -104 -11 -143 4 -11
0 -42 -11 -74 -12 -36 -15 -58 -8 -62 5 -3 13 -28 16 -55 l6 -49 -21 18 c-19
17 -21 17 -21 3 0 -10 4 -17 9 -17 6 0 8 -10 6 -22 -3 -12 -1 -26 4 -32 5 -6
11 -22 13 -36 1 -14 8 -29 13 -33 6 -5 4 -7 -5 -4 -8 2 -14 11 -12 18 1 8 -4
6 -13 -5 -16 -21 -11 -38 9 -30 7 3 20 -2 29 -10 19 -19 33 -20 41 -3 3 6 4
-14 1 -47 -2 -32 -1 -55 3 -51 4 3 8 16 9 28 1 12 5 46 9 75 4 34 3 52 -4 52
-6 0 -13 -6 -16 -12 -3 -7 -4 -1 -2 15 2 15 -1 30 -5 33 -5 3 -9 14 -9 25 0
10 -3 19 -7 19 -10 0 -12 27 -14 163 -1 59 -5 107 -10 107 -5 0 -9 10 -8 23 0
12 3 16 6 10 2 -7 11 -13 18 -13 7 0 16 -6 18 -12 4 -10 6 -9 6 1 1 8 -6 19
-15 25 -13 10 -14 22 -9 60 5 32 10 43 16 35 6 -10 8 -7 6 9 -2 28 -14 28 -22
1z"/>
<path d="M2030 3120 c0 -19 3 -21 12 -12 9 9 9 15 0 24 -9 9 -12 7 -12 -12z"/>
<path d="M2000 3080 c-14 -27 -5 -39 15 -19 9 9 11 19 6 28 -7 11 -11 9 -21
-9z"/>
<path d="M2024 3043 c-3 -10 -10 -30 -16 -45 -5 -15 -7 -32 -2 -39 4 -7 3 -10
-3 -6 -16 10 -23 -30 -8 -49 11 -15 13 -13 24 17 21 57 29 99 20 104 -4 3 -6
12 -2 20 3 8 2 15 -1 15 -4 0 -9 -8 -12 -17z"/>
<path d="M2006 2801 c2 -47 7 -87 9 -90 8 -7 4 80 -5 129 -7 35 -8 27 -4 -39z"/>
<path d="M1928 2827 c-2 -13 1 -29 9 -35 10 -10 11 -6 6 20 -8 42 -10 44 -15
15z"/>
<path d="M1950 2600 c0 -5 5 -10 11 -10 5 0 7 5 4 10 -3 6 -8 10 -11 10 -2 0
-4 -4 -4 -10z"/>
<path d="M1974 2562 c-9 -14 -9 -22 1 -35 15 -21 25 -22 25 -1 0 8 -4 12 -10
9 -14 -9 -12 19 2 33 7 7 8 12 2 12 -5 0 -14 -8 -20 -18z"/>
<path d="M2011 2474 c0 -11 3 -14 6 -6 3 7 2 16 -1 19 -3 4 -6 -2 -5 -13z"/>
<path d="M2723 1579 c-15 -6 -14 -8 7 -8 14 0 32 4 40 9 12 7 10 9 -7 7 -12 0
-30 -4 -40 -8z"/>
<path d="M3227 2483 c-4 -3 -7 -11 -7 -17 0 -6 5 -5 12 2 6 6 9 14 7 17 -3 3
-9 2 -12 -2z"/>
<path d="M3155 2438 c-50 -27 -85 -54 -85 -66 0 -7 -7 -15 -15 -18 -8 -4 -15
-11 -15 -17 0 -7 4 -7 12 1 17 17 26 15 24 -5 -2 -27 28 -26 55 0 26 27 101
130 79 110 -17 -15 -44 -17 -35 -3 8 12 5 12 -20 -2z m-5 -33 c0 -8 -9 -15
-20 -15 -15 0 -20 -7 -21 -27 l-1 -28 -7 25 c-6 20 -2 28 18 42 33 21 31 21
31 3z"/>
<path d="M2952 2329 c2 -6 8 -10 13 -10 5 0 11 4 13 10 2 6 -4 11 -13 11 -9 0
-15 -5 -13 -11z"/>
<path d="M2924 2319 c-3 -6 -2 -15 3 -20 5 -5 9 -1 10 11 2 22 -2 25 -13 9z"/>
<path d="M2960 2285 c-7 -8 -16 -13 -20 -10 -5 3 -16 -5 -25 -17 -8 -13 -19
-23 -23 -23 -4 -1 -16 -6 -27 -12 -20 -11 -27 -13 -45 -13 -5 0 -10 -4 -10
-10 0 -18 36 -11 74 15 20 14 41 25 46 25 4 0 10 5 12 11 3 9 9 9 25 0 31 -16
43 -14 43 9 0 11 -4 20 -10 20 -5 0 -10 -7 -10 -15 0 -9 -6 -12 -15 -9 -12 5
-13 9 -4 20 7 8 10 17 7 19 -3 3 -11 -1 -18 -10z"/>
<path d="M2600 2039 c0 -5 5 -7 10 -4 6 3 10 8 10 11 0 2 -4 4 -10 4 -5 0 -10
-5 -10 -11z"/>
<path d="M2500 1985 c-7 -8 -9 -15 -5 -15 5 0 0 -9 -9 -19 -10 -11 -24 -17
-32 -14 -9 3 -14 -2 -14 -17 0 -23 5 -22 59 18 25 19 30 27 20 33 -12 7 -11
11 1 19 8 5 10 10 4 10 -6 0 -17 -7 -24 -15z"/>
<path d="M2440 1975 c-8 -9 -8 -15 -2 -15 12 0 26 19 19 26 -2 2 -10 -2 -17
-11z"/>
<path d="M2465 1959 c-11 -17 1 -21 15 -4 8 9 8 15 2 15 -6 0 -14 -5 -17 -11z"/>
<path d="M2415 1910 c-3 -5 -1 -10 4 -10 6 0 11 5 11 10 0 6 -2 10 -4 10 -3 0
-8 -4 -11 -10z"/>
<path d="M2330 1870 c0 -11 4 -20 9 -20 5 0 7 9 4 20 -3 11 -7 20 -9 20 -2 0
-4 -9 -4 -20z"/>
<path d="M2380 1870 c-17 -15 -19 -20 -8 -20 17 0 44 27 36 35 -3 3 -15 -4
-28 -15z"/>
<path d="M2625 1200 c-4 -7 -3 -16 3 -22 14 -14 45 -2 40 15 -6 16 -34 21 -43
7z"/>
<path d="M2745 1200 c-4 -7 -3 -16 3 -22 14 -14 45 -2 40 15 -6 16 -34 21 -43
7z"/>
</g>
</svg>
